<svg width="3840" height="2160" viewBox="0 0 3840 2160" fill="none" xmlns="http://www.w3.org/2000/svg">
  <defs>
    <linearGradient id="bg" x1="262" y1="164" x2="3502" y2="1962" gradientUnits="userSpaceOnUse">
      <stop stop-color="#07111E"/>
      <stop offset="0.48" stop-color="#081523"/>
      <stop offset="1" stop-color="#050A13"/>
    </linearGradient>
    <radialGradient id="glowA" cx="0" cy="0" r="1" gradientUnits="userSpaceOnUse" gradientTransform="translate(820 520) rotate(19.3) scale(1040 820)">
      <stop stop-color="#4FE3FF" stop-opacity="0.7"/>
      <stop offset="1" stop-color="#4FE3FF" stop-opacity="0"/>
    </radialGradient>
    <radialGradient id="glowB" cx="0" cy="0" r="1" gradientUnits="userSpaceOnUse" gradientTransform="translate(3020 640) rotate(180) scale(980 780)">
      <stop stop-color="#72FFB9" stop-opacity="0.48"/>
      <stop offset="1" stop-color="#72FFB9" stop-opacity="0"/>
    </radialGradient>
    <radialGradient id="glowC" cx="0" cy="0" r="1" gradientUnits="userSpaceOnUse" gradientTransform="translate(2760 1680) rotate(180) scale(1080 760)">
      <stop stop-color="#FF6A84" stop-opacity="0.42"/>
      <stop offset="1" stop-color="#FF6A84" stop-opacity="0"/>
    </radialGradient>
    <pattern id="grid" width="120" height="120" patternUnits="userSpaceOnUse">
      <path d="M120 0H0V120" stroke="white" stroke-opacity="0.06"/>
    </pattern>
    <filter id="blurXL" x="-400" y="-400" width="4640" height="2960" filterUnits="userSpaceOnUse" color-interpolation-filters="sRGB">
      <feGaussianBlur stdDeviation="60"/>
    </filter>
    <filter id="blurM" x="-100" y="-100" width="4040" height="2360" filterUnits="userSpaceOnUse" color-interpolation-filters="sRGB">
      <feGaussianBlur stdDeviation="12"/>
    </filter>
  </defs>

  <rect width="3840" height="2160" fill="url(#bg)"/>
  <rect width="3840" height="2160" fill="url(#grid)"/>
  <rect width="3840" height="2160" fill="url(#glowA)"/>
  <rect width="3840" height="2160" fill="url(#glowB)"/>
  <rect width="3840" height="2160" fill="url(#glowC)"/>

  <g opacity="0.65" filter="url(#blurXL)">
    <ellipse cx="912" cy="434" rx="280" ry="210" fill="#54E7FF"/>
    <ellipse cx="3088" cy="616" rx="250" ry="190" fill="#76FFB7"/>
    <ellipse cx="2868" cy="1678" rx="270" ry="170" fill="#FF6882"/>
  </g>

  <g opacity="0.8">
    <path d="M438 1694C868 1384 1305 1133 1821 1008C2337 883 2799 933 3411 1114" stroke="url(#glowA)" stroke-width="2"/>
    <path d="M651 1497C1026 1226 1489 962 1984 874C2479 786 2966 849 3331 976" stroke="url(#glowB)" stroke-width="2"/>
    <path d="M725 1775C1130 1477 1646 1262 2233 1197C2820 1132 3188 1182 3470 1266" stroke="url(#glowC)" stroke-width="2"/>
  </g>

  <g opacity="0.22">
    <circle cx="1920" cy="1080" r="600" stroke="#68E8FF" stroke-width="2"/>
    <circle cx="1920" cy="1080" r="470" stroke="#68E8FF" stroke-width="1.5"/>
    <circle cx="1920" cy="1080" r="340" stroke="#72FFB9" stroke-width="1.5"/>
    <circle cx="1920" cy="1080" r="214" stroke="#FF6A84" stroke-width="1.5"/>
  </g>

  <g filter="url(#blurM)">
    <path d="M1041 1250C1445 886 2081 813 2639 1019" stroke="#68E8FF" stroke-opacity="0.45" stroke-width="22" stroke-linecap="round"/>
    <path d="M1182 1401C1594 1114 2134 1047 2535 1180" stroke="#72FFB9" stroke-opacity="0.38" stroke-width="18" stroke-linecap="round"/>
    <path d="M1405 1560C1808 1375 2249 1388 2597 1494" stroke="#FF6A84" stroke-opacity="0.34" stroke-width="16" stroke-linecap="round"/>
  </g>

  <g opacity="0.3">
    <path d="M1012 575H1534" stroke="#68E8FF" stroke-width="4"/>
    <path d="M1012 608H1701" stroke="#68E8FF" stroke-opacity="0.75" stroke-width="2"/>
    <path d="M2304 1485H2910" stroke="#72FFB9" stroke-width="4"/>
    <path d="M2304 1518H3091" stroke="#72FFB9" stroke-opacity="0.75" stroke-width="2"/>
    <path d="M2616 412H3094" stroke="#FFBD74" stroke-width="3"/>
    <path d="M2616 437H3262" stroke="#FFBD74" stroke-opacity="0.66" stroke-width="2"/>
  </g>

  <g opacity="0.9">
    <circle cx="531" cy="298" r="3" fill="#ECF5FF"/>
    <circle cx="729" cy="228" r="2.5" fill="#68E8FF"/>
    <circle cx="874" cy="314" r="2.5" fill="#72FFB9"/>
    <circle cx="1160" cy="262" r="2" fill="#ECF5FF"/>
    <circle cx="3014" cy="362" r="3" fill="#ECF5FF"/>
    <circle cx="3218" cy="496" r="2.5" fill="#68E8FF"/>
    <circle cx="2922" cy="1689" r="2.5" fill="#72FFB9"/>
    <circle cx="3160" cy="1745" r="3" fill="#ECF5FF"/>
    <circle cx="3374" cy="1602" r="2.5" fill="#FFBD74"/>
    <circle cx="1738" cy="427" r="2" fill="#ECF5FF"/>
    <circle cx="2050" cy="1832" r="2.5" fill="#68E8FF"/>
    <circle cx="1455" cy="1688" r="2.5" fill="#72FFB9"/>
  </g>
</svg>
